<?xml version="1.0" standalone="no"?>
<!DOCTYPE svg PUBLIC "-//W3C//DTD SVG 20010904//EN"
 "http://www.w3.org/TR/2001/REC-SVG-20010904/DTD/svg10.dtd">
<svg version="1.0" xmlns="http://www.w3.org/2000/svg"
 width="500.000000pt" height="500.000000pt" viewBox="0 0 500.000000 500.000000"
 preserveAspectRatio="xMidYMid meet">
<metadata>
Created by potrace 1.14, written by Peter Selinger 2001-2017
</metadata>
<g transform="translate(0.000000,500.000000) scale(0.100000,-0.100000)"
fill="#000000" stroke="none">
<path d="M3920 3355 c-328 -66 -562 -289 -642 -613 -31 -123 -31 -331 0 -454
74 -297 274 -507 567 -593 112 -33 295 -44 412 -25 283 45 524 231 634 488 28
66 28 70 29 265 l0 197 -445 0 -445 0 0 -150 0 -150 261 -2 260 -3 -36 -72
c-90 -180 -284 -260 -504 -208 -221 53 -341 223 -341 484 1 225 105 389 288
450 84 29 206 28 298 0 59 -18 77 -30 131 -85 l63 -64 220 0 220 0 -6 28 c-3
15 -25 68 -49 117 -98 204 -287 342 -534 389 -100 19 -289 20 -381 1z"/>
<path d="M150 2510 l0 -842 403 5 c372 3 408 5 485 25 247 65 432 210 532 417
72 150 85 210 85 400 0 136 -4 172 -23 240 -83 288 -281 483 -577 566 -76 22
-102 23 -492 27 l-413 3 0 -841z m742 479 c86 -18 169 -63 225 -122 91 -96
123 -189 123 -357 0 -162 -36 -266 -121 -352 -91 -92 -193 -125 -411 -135
l-148 -6 0 491 0 492 140 0 c76 0 163 -5 192 -11z"/>
<path d="M1860 3185 l0 -165 360 -2 360 -3 -360 -518 -360 -518 0 -155 0 -154
595 0 595 0 0 170 0 170 -358 2 -359 3 358 510 358 510 1 158 0 157 -595 0
-595 0 0 -165z"/>
</g>
</svg>
